<svg version="1.2" xmlns="http://www.w3.org/2000/svg" viewBox="0 0 130 117" width="130" height="117"><defs><filter x="-50%" y="-50%" width="200%" height="200%" id="f1" ><feDropShadow dx="3.8302222155948895" dy="3.2139380484326976" stdDeviation="6.25" flood-color="#888526" flood-opacity=".3"/></filter></defs><style>.a{filter:url(#f1);fill:#aab33c}</style><path fill-rule="evenodd" class="a" d="m104.7 14.1v-0.1h-86.5v0.1c-2.8 0.2-4.9 2.5-5.2 5.3v58.3c0 1.1 0.3 2.1 0.8 2.9 1.1 2 2.7 3 4.9 3h31.2v6.7h-9.7c-0.6 0-1.1 0.5-1.1 1.1v4.5c0 0.6 0.5 1.1 1.1 1.1h42.6c0.6 0 1.1-0.5 1.1-1.1v-4.5c0-0.6-0.5-1.1-1.1-1.1h-9.8v-6.7h31.2c2.3 0 3.9-1 5-3 0.5-0.9 0.8-1.8 0.8-2.9v-58.3c-0.3-2.8-2.6-5.1-5.3-5.3zm-86.5 5.3h86.5v0.1l-86.5 58.3v-0.1-58.3z"/></svg>