<svg version="1.2" xmlns="http://www.w3.org/2000/svg" viewBox="0 0 92 115" width="92" height="115"><defs><filter x="-50%" y="-50%" width="200%" height="200%" id="f1" ><feDropShadow dx="3.8302222155948895" dy="3.2139380484326976" stdDeviation="6.25" flood-color="#888526" flood-opacity=".3"/></filter></defs><style>.a{filter:url(#f1);fill:#aab33c}</style><path fill-rule="evenodd" class="a" d="m69 25.7q-2.3-2.7-4.7-5.4-1.8-2.1-3.7-4.3c-1.2-1.4-3.6-2.5-5.5-2.5h-38.8c-1.8 0-3.3 1.5-3.3 3.4v75.8c0 1.8 1.5 3.3 3.3 3.3h51.5c1.9 0 3.4-1.5 3.4-3.3v-61.1c0-1.8-1-4.5-2.2-5.9zm-18.1 19.7h4.5v6.8h-4.5zm-6.4-12.8h4.5v19.6h-4.5zm-13.4 1c3.5 0 6.9 3.6 6.9 6.9h-6.9v-6.9zm0 8.5q3.3 0 6.6 0c0.1 0 0.2 0 0.4 0.1-0.4 3-1.9 5.1-4.7 6.4-2.6 1.2-5.9 0.7-8-1.2q2.6-2.6 5.1-5.1c0.1-0.1 0.4-0.2 0.6-0.2zm-8.2-3.7c1.1-2.7 4-4.8 6.6-4.8 0 2.4 0 4.8 0 7.2 0 0.2-0.1 0.4-0.2 0.5q-2.5 2.6-5 5.1c-1.9-1.8-2.4-5.3-1.4-8zm-0.5 20.5h39.3v3.6h-39.3v-3.6zm39.3 18h-39.3v-3.6h39.3zm0-7.6h-39.3v-3.6h39.3v3.6zm0-17.1h-4.4v-15.5h4.4v15.5z"/></svg>