<svg version="1.2" xmlns="http://www.w3.org/2000/svg" viewBox="0 0 105 116" width="105" height="116"><defs><filter x="-50%" y="-50%" width="200%" height="200%" id="f1" ><feDropShadow dx="3.8302222155948895" dy="3.2139380484326976" stdDeviation="6.25" flood-color="#888526" flood-opacity=".3"/></filter></defs><style>.a{filter:url(#f1);fill:#aab33c}</style><path fill-rule="evenodd" class="a" d="m11 94.1v1.3c0 0.9 0.7 1.6 1.6 1.6h72.3c0.9 0 1.6-0.7 1.6-1.6v-1.3c0-0.9-0.7-1.6-1.6-1.6h-3.3c0 0-0.8-0.7-0.8-1.6v-75.8c0-0.9-0.7-1.6-1.6-1.6h-16.8c-0.8 0-1.6 0.7-1.6 1.6v75.8c0 0.9-0.5 1.6-1.3 1.6-0.7 0-1.3-0.7-1.3-1.6v-50.6c0-0.8-0.7-1.5-1.5-1.5h-16.8c-0.8 0-1.5 0.6-1.5 1.5v50.6c0 0.9-0.6 1.6-1.4 1.6-0.7 0-1.3-0.7-1.3-1.6v-38.1c0-0.9-0.7-1.6-1.6-1.6h-16.7c-0.9 0-1.6 0.7-1.6 1.6v38.1c0 0.9-0.1 1.6-0.3 1.6h-2.9c-0.9 0-1.6 0.7-1.6 1.6zm53.7-78.3h12.2c0.8 0 1.5 0.7 1.5 1.5v8.6c0 0.9-0.6 1.6-1.5 1.6h-12.2c-0.8 0-1.5-0.7-1.5-1.6v-8.6c0-0.8 0.6-1.5 1.5-1.5zm-22.5 25.2h12.2c0.9 0 1.6 0.7 1.6 1.6v25.5c0 0.9-0.7 1.6-1.6 1.6h-12.2c-0.9 0-1.6-0.7-1.6-1.6v-25.5c0-0.9 0.7-1.6 1.6-1.6zm-24.1 22.1v-8c0-0.9 0.7-1.6 1.6-1.6h12.1c0.9 0 1.6 0.7 1.6 1.6v8c0 0.9-0.7 1.6-1.6 1.6h-12.1c-0.9 0-1.6-0.7-1.6-1.6z"/></svg>