<svg version="1.2" xmlns="http://www.w3.org/2000/svg" viewBox="0 0 98 116" width="98" height="116"><defs><filter x="-50%" y="-50%" width="200%" height="200%" id="f1" ><feDropShadow dx="3.8302222155948895" dy="3.2139380484326976" stdDeviation="6.25" flood-color="#888526" flood-opacity=".3"/></filter></defs><style>.a{filter:url(#f1);fill:#aab33c}</style><path fill-rule="evenodd" class="a" d="m27.3 23.7c-0.1-0.5-0.3-1-0.6-1.4q-0.3-0.5-0.9-0.8-0.5-0.3-1.3-0.3-1 0-1.6 0.5-0.7 0.6-1 1.5-0.3 1-0.3 2.7 0 2.6 0.9 3.7 0.7 1 2.1 1 1 0 1.6-0.6 0.7-0.5 1-1.5 0.3-1 0.3-2.6 0-1.4-0.2-2.2zm-1.5 5.2q-0.5 0.7-1.3 0.7-0.7 0-1.3-0.7-0.5-0.8-0.5-3 0-2.3 0.6-3.1 0.4-0.7 1.2-0.7 0.8 0 1.3 0.8 0.6 0.7 0.6 3 0 2.2-0.6 3zm7.1 1.5v-9.2h-0.7q-0.3 0.6-1 1.2-0.7 0.6-1.7 1.1v1.1q0.6-0.2 1.2-0.6c0.5-0.3 0.8-0.5 1.1-0.8v7.2h1.1zm8.7-6.7c-0.1-0.5-0.3-1-0.6-1.4q-0.3-0.5-0.9-0.8-0.5-0.3-1.3-0.3-1 0-1.7 0.5-0.6 0.6-1 1.5-0.3 1-0.3 2.7 0 2.6 0.9 3.7 0.8 1 2.1 1 1 0 1.7-0.6 0.6-0.5 1-1.5 0.3-1 0.3-2.6 0-1.4-0.2-2.2zm-1.5 5.2q-0.5 0.7-1.3 0.7-0.8 0-1.3-0.7-0.5-0.8-0.5-3 0-2.3 0.6-3.1 0.4-0.7 1.2-0.7 0.8 0 1.3 0.8 0.6 0.7 0.5 3 0 2.2-0.5 3zm8.6-5.2c-0.1-0.5-0.3-1-0.6-1.4q-0.3-0.5-0.9-0.8-0.5-0.3-1.3-0.3-1 0-1.6 0.5-0.7 0.6-1 1.5-0.4 1-0.4 2.7 0 2.6 0.9 3.7 0.8 1 2.1 1 1 0 1.7-0.6 0.7-0.5 1-1.5 0.3-1 0.3-2.6 0-1.4-0.2-2.2zm-1.5 5.2q-0.5 0.7-1.3 0.7-0.7 0-1.3-0.7-0.5-0.8-0.5-3 0-2.3 0.6-3.1 0.5-0.7 1.2-0.7 0.8 0 1.4 0.8 0.5 0.7 0.5 3 0 2.2-0.6 3zm8.6-5.2c-0.1-0.5-0.3-1-0.5-1.4q-0.4-0.5-0.9-0.8-0.6-0.3-1.3-0.3-1 0-1.7 0.5-0.7 0.6-1 1.5-0.3 1-0.3 2.7 0 2.6 0.9 3.7 0.7 1 2.1 1 1 0 1.6-0.6 0.7-0.5 1-1.5 0.4-1 0.4-2.6 0-1.4-0.3-2.2zm-1.4 5.2q-0.6 0.7-1.3 0.7-0.8 0-1.3-0.7-0.5-0.8-0.6-3 0-2.3 0.6-3.1 0.5-0.7 1.3-0.7 0.8 0 1.3 0.8 0.5 0.7 0.5 3 0 2.2-0.5 3zm-28 16.9v-9.2h-0.8q-0.3 0.6-1 1.2-0.7 0.6-1.6 1.1v1.1q0.5-0.2 1.2-0.6 0.6-0.4 1-0.8v7.2h1.2zm8.6-6.7q-0.2-0.8-0.5-1.4-0.4-0.5-1-0.8-0.5-0.3-1.2-0.3-1.1 0-1.7 0.5-0.7 0.6-1 1.5-0.3 1-0.3 2.7 0 2.6 0.9 3.7 0.7 1 2.1 1 1 0 1.6-0.6 0.7-0.5 1-1.5 0.3-1 0.3-2.6 0.1-1.4-0.2-2.2zm-1.4 5.2q-0.6 0.7-1.3 0.7-0.8 0-1.3-0.7-0.6-0.8-0.6-3 0-2.3 0.6-3.1 0.5-0.7 1.3-0.7 0.7 0 1.3 0.8 0.5 0.7 0.5 3 0 2.2-0.5 3zm7 1.5v-9.2h-0.7q-0.3 0.6-1 1.2-0.7 0.6-1.6 1.1v1.1q0.5-0.2 1.1-0.6 0.7-0.4 1.1-0.8v7.2h1.1zm6.2 0v-9.2h-0.7q-0.3 0.6-1 1.2-0.7 0.6-1.7 1.1v1.1q0.6-0.2 1.2-0.6 0.7-0.4 1.1-0.8v7.2h1.1zm5.9 0.2q1 0 1.7-0.6 0.6-0.5 1-1.5 0.3-1 0.3-2.6 0-1.4-0.2-2.2-0.2-0.8-0.6-1.4-0.4-0.5-0.9-0.8-0.6-0.3-1.3-0.3-1 0-1.7 0.5-0.6 0.6-1 1.5-0.3 1-0.3 2.7 0 2.5 0.9 3.7 0.8 1 2.1 1zm-1.2-7.8q0.4-0.7 1.2-0.7 0.8 0 1.3 0.8 0.5 0.7 0.5 3 0 2.2-0.5 3-0.5 0.7-1.3 0.8-0.8-0.1-1.3-0.8-0.5-0.8-0.5-3 0-2.3 0.6-3.1zm9.6 7.6v-9.2h-0.7q-0.3 0.6-1 1.2-0.8 0.6-1.7 1.1v1.1q0.5-0.2 1.2-0.6 0.7-0.4 1.1-0.8v7.2h1.1zm-33.8 8.7q-0.2-0.8-0.6-1.4-0.3-0.5-0.9-0.8-0.5-0.3-1.3-0.3-1 0-1.6 0.5-0.7 0.6-1 1.6c-0.2 0.6-0.3 1.5-0.3 2.6q0 2.6 0.9 3.7 0.7 1 2.1 1 1 0 1.6-0.6 0.7-0.5 1-1.5 0.3-1 0.3-2.6 0-1.4-0.2-2.2zm-1.5 5.2q-0.5 0.8-1.3 0.8-0.7 0-1.3-0.8-0.5-0.8-0.5-3 0-2.3 0.6-3.1 0.4-0.7 1.2-0.7 0.8 0 1.3 0.8 0.6 0.7 0.6 3 0 2.2-0.6 3zm7.1 1.5v-9.2h-0.7q-0.3 0.6-1 1.2-0.7 0.7-1.7 1.1v1.1q0.6-0.2 1.2-0.6 0.7-0.4 1.1-0.8v7.2zm8.7-6.7q-0.2-0.8-0.6-1.4-0.4-0.5-0.9-0.8-0.6-0.3-1.3-0.3-1 0-1.7 0.5-0.6 0.6-1 1.6-0.3 1-0.3 2.6 0 2.6 0.9 3.7 0.8 1 2.1 1 1 0 1.7-0.6 0.6-0.5 1-1.5 0.3-1 0.3-2.6 0-1.4-0.2-2.2zm-1.5 5.2q-0.6 0.8-1.3 0.8-0.8 0-1.3-0.8-0.5-0.7-0.5-3 0-2.3 0.5-3.1 0.5-0.7 1.3-0.7 0.8 0 1.3 0.8 0.5 0.7 0.5 3 0 2.2-0.5 3zm8.5-0.4q0.3-1 0.3-2.6 0-1.4-0.2-2.2-0.2-0.8-0.6-1.4-0.4-0.5-0.9-0.8-0.6-0.3-1.3-0.3-1 0-1.7 0.5-0.6 0.6-0.9 1.6c-0.3 0.6-0.4 1.5-0.4 2.6q0 2.6 0.9 3.7 0.8 1 2.1 1 1 0 1.7-0.6 0.7-0.5 1-1.5zm-2.7 1.2q-0.8 0-1.3-0.8-0.5-0.8-0.5-3 0-2.3 0.6-3.1 0.4-0.7 1.2-0.7 0.8 0 1.3 0.8 0.5 0.7 0.5 3 0 2.2-0.5 3-0.5 0.8-1.3 0.8zm7.1 0.9q1.1 0 1.7-0.6 0.7-0.5 1-1.5 0.3-1 0.3-2.6 0-1.4-0.2-2.2-0.2-0.8-0.5-1.3-0.4-0.6-1-0.9-0.5-0.3-1.3-0.3-1 0-1.6 0.5-0.7 0.6-1 1.6c-0.2 0.6-0.3 1.5-0.3 2.6q0 2.6 0.9 3.7 0.7 1 2 1zm-1.2-7.8q0.5-0.7 1.2-0.7 0.8 0 1.4 0.8 0.5 0.7 0.5 3 0 2.3-0.5 3-0.6 0.8-1.4 0.8-0.7 0-1.3-0.8-0.5-0.7-0.5-3c0-1.5 0.2-2.6 0.6-3.1zm9.6 7.6v-9.2h-0.7q-0.3 0.6-1 1.2-0.7 0.7-1.6 1.1v1.1c0.3-0.1 0.7-0.3 1.1-0.6q0.7-0.4 1.1-0.8v7.2h1.1zm6.2 0v-9.2h-0.7q-0.3 0.6-1 1.2-0.7 0.7-1.7 1.1v1.1q0.6-0.2 1.2-0.6 0.7-0.4 1.1-0.8v7.2zm-41.3 13.2v-9.3h-0.7q-0.3 0.6-1 1.3-0.7 0.6-1.7 1.1v1q0.6-0.1 1.2-0.5 0.7-0.4 1.1-0.8v7.2zm8.6-1.9q0.3-1 0.3-2.7 0-1.3-0.2-2.1-0.2-0.8-0.6-1.4-0.4-0.6-0.9-0.8-0.6-0.3-1.3-0.4-1 0-1.7 0.6-0.6 0.5-1 1.5-0.3 1-0.3 2.6 0 2.6 0.9 3.8 0.8 0.9 2.1 1 1 0 1.7-0.6 0.6-0.5 1-1.5zm-2.7 1.1q-0.8 0-1.3-0.7-0.5-0.8-0.5-3.1 0-2.2 0.5-3.1 0.5-0.6 1.3-0.6 0.8 0 1.3 0.7 0.5 0.8 0.5 3 0 2.3-0.5 3.1-0.5 0.7-1.3 0.7zm8.4 0.8v-9.3h-0.8q-0.3 0.6-1 1.3-0.7 0.6-1.6 1.1v1q0.5-0.1 1.2-0.5 0.7-0.4 1-0.8v7.2h1.2zm6.1 0v-9.2h-0.7q-0.3 0.5-1 1.2-0.7 0.6-1.6 1.1v1.1q0.5-0.2 1.2-0.6 0.6-0.4 1-0.8v7.2zm-24.9 8.2c-0.2 0.7-0.4 1.6-0.4 2.7q0.1 2.6 1 3.7 0.7 1 2.1 1 0.9 0 1.6-0.6 0.7-0.5 1-1.5 0.3-1 0.3-2.6 0-1.4-0.2-2.2-0.2-0.8-0.6-1.4-0.3-0.5-0.9-0.8-0.5-0.3-1.3-0.3-1 0-1.6 0.5-0.7 0.5-1 1.5zm2.6-1.1q0.8 0 1.3 0.7 0.6 0.8 0.6 3.1 0 2.2-0.6 3-0.5 0.7-1.3 0.7-0.7 0-1.3-0.7-0.5-0.8-0.5-3 0-2.3 0.6-3.1 0.5-0.7 1.2-0.7zm8.4 8.3v-9.2h-0.7q-0.3 0.6-1 1.2-0.7 0.6-1.7 1.1v1.1q0.6-0.2 1.3-0.6 0.6-0.4 1-0.8v7.2h1.1zm3.2-7.2q-0.3 1-0.3 2.7 0 2.6 0.9 3.7 0.8 1 2.1 1 1 0 1.7-0.6 0.6-0.5 1-1.5 0.3-1 0.3-2.6 0-1.4-0.2-2.2-0.2-0.8-0.6-1.4-0.3-0.5-0.9-0.8-0.6-0.3-1.3-0.3-1 0-1.7 0.5-0.6 0.6-1 1.5zm2.7-1.1q0.8 0 1.3 0.8 0.6 0.7 0.5 3 0.1 2.2-0.5 3-0.5 0.7-1.3 0.7-0.8 0-1.3-0.7-0.5-0.8-0.5-3 0-2.3 0.6-3.1 0.4-0.7 1.2-0.7zm8.2 11.3h-27.9c-1.7 0-3.1-1.4-3.1-3v-6.2c0.2-0.1 0.3-0.1 0.5-0.2q0.6-0.4 1-0.8v7.2h1.2v-9.2h-0.7c-0.2 0.4-0.6 0.8-1.1 1.2-0.2 0.2-0.6 0.4-0.9 0.6v-8.7q0.8 0.8 2 0.8c0.7 0 1.2-0.2 1.7-0.5q0.6-0.6 0.9-1.5c0.3-0.7 0.4-1.6 0.4-2.7 0-0.9-0.1-1.6-0.2-2.1q-0.2-0.9-0.6-1.4c-0.2-0.3-0.6-0.6-0.9-0.8q-0.6-0.3-1.3-0.3-1 0-1.7 0.5-0.1 0.2-0.3 0.4v-11c0.2-0.1 0.3-0.2 0.5-0.3q0.6-0.4 1-0.8v7.2h1.2v-9.2h-0.8c-0.2 0.4-0.5 0.8-1 1.3-0.2 0.2-0.6 0.3-0.9 0.5v-8.7c0.5 0.6 1.2 0.9 2 0.9q1 0 1.6-0.6c0.5-0.3 0.8-0.8 1-1.5 0.3-0.7 0.4-1.5 0.4-2.6 0-0.9-0.1-1.6-0.2-2.2q-0.3-0.8-0.6-1.3c-0.2-0.4-0.6-0.7-0.9-0.9q-0.6-0.3-1.3-0.3-1 0-1.7 0.5l-0.3 0.4v-13.3l0.5-0.2q0.6-0.4 1-0.8v7.2h1.2v-9.2h-0.8c-0.2 0.4-0.5 0.8-1 1.2-0.2 0.3-0.6 0.4-0.9 0.6v-2c0-1.7 1.3-3 3-3h35.3c1.7 0 3.9 1 5 2.3l1.2 1.3c-0.2 0.3-0.5 0.5-0.8 0.8-0.4 0.4-1 0.8-1.6 1.1v1.1c0.3-0.1 0.7-0.3 1.2-0.6q0.6-0.4 1-0.8v7.2h1.1v-7.6l1.3 1.3 4.2 4.9c1.1 1.3 2 3.7 2 5.4v3c-0.2-0.2-0.4-0.4-0.6-0.5-0.4-0.2-0.8-0.3-1.3-0.3q-1 0-1.7 0.5c-0.4 0.4-0.7 0.9-1 1.5-0.2 0.7-0.3 1.6-0.3 2.7 0 1.7 0.3 2.9 0.9 3.7 0.5 0.6 1.2 1 2.1 1q1 0 1.6-0.6c0.2-0.1 0.2-0.2 0.3-0.2v18.5q1.6 0.7 3 1.7v-33.4c0-1.9-1-4.5-2.2-5.9l-4.7-5.5c-1.3-1.4-2.5-2.9-3.8-4.3-1.2-1.4-3.7-2.6-5.6-2.6h-39.2c-1.8 0-3.4 1.6-3.4 3.4v76.6c0 1.8 1.6 3.3 3.4 3.3h35.6c-1.9-1.1-3.6-2.5-5-4.2zm-30.3-26q0.5-0.7 1.3-0.7 0.8 0 1.3 0.8 0.5 0.7 0.6 3c0 1.5-0.2 2.5-0.6 3q-0.5 0.7-1.3 0.8c-0.5 0-1-0.3-1.3-0.8-0.3-0.5-0.5-1.5-0.5-3q0-2.3 0.5-3.1zm0-28.6q0.5-0.6 1.3-0.7 0.8 0.1 1.3 0.8 0.5 0.8 0.6 3c0 1.5-0.2 2.5-0.6 3q-0.5 0.8-1.3 0.8c-0.5 0-1-0.3-1.3-0.8-0.3-0.5-0.5-1.5-0.5-3 0-1.5 0.1-2.5 0.5-3.1zm51.6 6.1c-0.3 0.5-0.8 0.8-1.3 0.8q-0.8 0-1.3-0.8c-0.4-0.5-0.6-1.5-0.6-3q0.1-2.2 0.6-3.1 0.5-0.6 1.3-0.7c0.5 0 1 0.3 1.3 0.8q0.5 0.8 0.5 3 0 2.3-0.5 3zm6 32.7h-0.1l-0.6-1.5v-0.1c1.9-4.2 1.7-4.3 1.4-4.6l-2.4-2.4c-0.1-0.1-0.3-0.2-0.4-0.2-0.2 0-0.6 0-4.2 1.6l-0.2 0.1-1.5-0.6v-0.2c-1.7-4.2-1.9-4.2-2.3-4.2h-3.5c-0.4 0-0.6 0-2.2 4.2l-0.1 0.2-1.4 0.6-0.2-0.1q-3.7-1.5-4.2-1.5c-0.2 0-0.4 0.1-0.5 0.2l-2.4 2.4c-0.4 0.3-0.5 0.4 1.5 4.5v0.1l-0.6 1.5-0.1 0.1c-4.3 1.6-4.3 1.8-4.3 2.2v3.4c0 0.5 0 0.7 4.1 2.1 0 0.2 0 0.3 0 0.5 0 1 0.1 1.8 0.3 2.5-1.2 3-1.1 3.1-0.8 3.4l2.4 2.4c0.1 0.1 0.3 0.1 0.4 0.1 0.2 0 0.6 0 4.2-1.6l0.2-0.1 1.5 0.6v0.2c1.7 4.2 1.9 4.2 2.3 4.2h3.5c0.4 0 0.6 0 2.2-4.2l0.1-0.2 1.4-0.6 0.2 0.1q3.7 1.6 4.2 1.6c0.2 0 0.4-0.1 0.5-0.2l2.4-2.4c0.4-0.3 0.5-0.5-1.5-4.5v-0.2l0.6-1.4 0.1-0.1c4.4-1.7 4.4-1.8 4.4-2.3v-3.4c0-0.5 0-0.6-4.4-2.2zm-12 9.5c-3.1 0-5.6-2.5-5.6-5.5 0-3.1 2.5-5.6 5.6-5.6 3.1 0 5.6 2.5 5.6 5.6 0 3-2.5 5.5-5.6 5.5z"/></svg>